<svg width="24" height="23" viewBox="0 0 24 23" fill="none" xmlns="http://www.w3.org/2000/svg">
<path d="M7.93673 4.03113C5.06385 4.03113 2.73492 6.36007 2.73492 9.23293C2.73492 14.4348 8.88252 19.1637 12.1928 20.2637C15.503 19.1637 21.6506 14.4348 21.6506 9.23293C21.6506 6.36007 19.3217 4.03113 16.4488 4.03113C14.6895 4.03113 13.1342 4.90451 12.1928 6.24133C11.2514 4.90451 9.69603 4.03113 7.93673 4.03113Z" stroke="#2B2B2B" stroke-width="1.89157" stroke-linecap="round" stroke-linejoin="round"/>
<path d="M9.76513 9.31755C9.95667 9.50934 10.4288 9.89747 10.656 10.0572C10.8016 10.1596 10.9421 10.2341 11.0811 10.293C11.2549 10.3668 11.4292 10.5112 11.6446 10.6462C11.7647 10.7215 11.8592 10.8145 11.9603 10.8819C12.0106 10.9155 12.0613 10.941 12.0659 10.9369C12.2221 10.7981 11.7012 10.673 11.3245 10.3465C11.0773 10.1324 10.7312 9.80359 10.5302 9.62378C10.2935 9.41209 10.203 9.35994 10.04 9.21786C9.45729 8.71007 9.29474 8.60286 9.14748 8.50621C8.9589 8.38243 8.85715 8.31669 8.69324 8.22016C8.58096 8.15404 8.47861 8.08957 8.40265 8.00566C8.38219 7.98306 8.36908 7.95531 8.37716 7.93828C8.39795 7.89442 8.6111 7.90433 8.97992 7.94597C9.46197 8.0004 9.79794 8.19833 10.0699 8.31139C10.5406 8.5071 10.9086 8.61902 11.0219 8.67365C11.2143 8.76642 11.4297 8.82898 11.5565 8.88841C11.5807 8.89975 11.6068 8.90519 11.6239 8.89283C11.6662 8.86213 11.6328 8.71289 11.4826 8.39076C11.202 7.78942 10.8758 7.45034 10.8088 7.37501C10.5675 7.10374 10.2461 6.8207 10.1104 6.66399C9.99151 6.52681 9.86658 6.41592 9.74457 6.31901C9.64566 6.24047 9.51328 6.24734 9.38294 6.21782C9.22959 6.18308 9.07619 6.16306 8.94963 6.12116C8.81273 6.07585 8.65576 6.08735 8.5123 6.0664C8.32024 6.03836 8.15104 6.02022 7.97414 6.00331C7.70258 5.97736 7.46185 5.92786 6.95562 5.87739C6.60891 5.84282 6.07463 5.86023 5.78341 5.86439C5.38118 5.87014 5.23175 5.95259 4.9881 6.08255C4.87891 6.1408 4.81915 6.2216 4.77296 6.28457C4.62236 6.4899 5.66783 5.78502 5.79843 5.70906C5.90653 5.64618 6.02113 5.59121 6.19362 5.57847C6.23197 5.57563 6.25684 5.56597 6.67777 5.56168C7.09871 5.55739 7.91484 5.55739 8.34776 5.55323C8.80581 5.54882 9.00629 5.53216 9.25045 5.52383C9.32018 5.52145 9.27808 5.49885 9.23581 5.49027C9.0699 5.45659 8.88289 5.45645 8.25577 5.44383C7.81346 5.43493 6.99726 5.46453 6.39362 5.51475C5.78997 5.56497 5.42355 5.64824 5.16816 5.72862C4.58468 5.91226 4.51657 6.09542 4.32339 6.43876C4.1532 6.74122 4.17967 7.02057 4.16705 7.19205C4.12407 7.77618 4.27178 8.0295 4.31405 8.17726C4.34447 8.28361 4.3813 8.38331 4.41083 8.49687C4.4697 8.7233 4.53272 9.04702 4.58735 9.26215C4.62743 9.41995 4.68413 9.53558 4.71366 9.69129C4.7493 9.87921 4.81031 10.1493 4.91933 10.5734C5.00963 10.9247 5.16362 11.1421 5.33131 11.4906C5.45277 11.743 5.50834 11.8659 5.55894 11.992C5.62235 12.1502 5.75212 12.2863 5.85723 12.4628C6.02055 12.7371 6.17255 12.7829 6.26542 12.8713C6.40885 13.0077 6.61872 13.0944 6.5984 13.0696C6.55541 13.0173 6.4032 12.9283 5.94303 12.652C5.48285 12.3756 4.70836 11.9259 4.29273 11.6776C3.83777 11.4058 3.7928 11.3367 3.75091 11.2489C3.67644 11.0927 3.64139 10.9498 3.60366 10.8369C3.53723 10.638 3.53186 10.2621 3.54852 9.85457C3.56732 9.39445 3.90132 9.14998 3.99002 9.01938C4.06732 8.90559 4.17891 8.81333 4.27178 8.71643C4.38312 8.60025 4.54079 8.5105 4.69208 8.39265C4.83801 8.27897 5.08639 8.13247 5.2768 7.98471C5.42541 7.86939 5.55023 7.77866 5.67225 7.69854C5.79265 7.61947 6.05344 7.45968 6.54528 7.30334C6.71196 7.25036 6.95082 7.24871 7.31245 7.24C7.67409 7.23129 8.1571 7.23962 8.43924 7.25224C8.9176 7.27363 9.19985 7.40719 9.35682 7.50447C9.38222 7.52022 9.39467 7.55053 9.36994 7.55507C9.34521 7.55961 9.27858 7.54296 9.06105 7.46775C8.84352 7.39255 8.47709 7.2593 8.13426 7.16152C7.79143 7.06373 7.4833 7.00543 7.22463 6.96291C6.96597 6.92039 6.7661 6.8954 6.54654 6.88253C6.09441 6.85603 5.79527 6.87799 5.65698 6.91559C5.46726 6.96718 5.28248 7.1629 5.12702 7.3687C5.02056 7.50964 4.94558 7.70119 4.85321 7.96124C4.7572 8.23158 4.72653 8.54205 4.70129 9.09825C4.68325 9.4959 4.69271 10.1291 4.72186 10.5968C4.75101 11.0644 4.8093 11.3475 4.86432 11.5475C4.99665 12.0286 5.22166 12.1934 5.35263 12.2742C5.41164 12.3106 5.49143 12.3123 5.56701 12.2872C5.60295 12.2752 5.62594 12.2454 5.82619 11.9702C6.02643 11.695 6.40119 11.1704 6.71916 10.7835C7.03713 10.3966 7.28697 10.1635 7.53226 9.96005C7.77755 9.75665 8.01073 9.59009 8.28492 9.42101C8.55911 9.25193 8.86724 9.08538 9.11758 8.9621C9.36792 8.83882 9.55113 8.76387 9.75378 8.7086C10.4875 8.5085 10.7741 8.61902 10.9001 8.68627C11.1543 8.82189 11.2283 8.98039 11.3503 9.13194C11.4007 9.19453 11.4474 9.24159 11.4434 9.27944C11.4352 9.35892 11.1713 9.26733 10.7362 9.15869C10.4323 9.08281 9.96803 8.93346 9.57788 8.84387C9.18774 8.75428 8.88793 8.72097 8.45867 8.70381C8.02941 8.68665 7.47977 8.68665 7.16747 8.69498C6.79618 8.70488 6.64522 8.77876 6.4856 8.85434C6.3731 8.90761 6.22479 9.0556 5.99829 9.34467C5.86932 9.50928 5.75515 9.74201 5.62001 10.0036C5.48487 10.2652 5.3433 10.5566 5.24954 10.7734C5.0102 11.3268 5.02078 11.5797 5.03327 11.6765C5.03745 11.7088 5.07075 11.6983 5.09611 11.6774C5.15318 11.6302 5.30544 11.4472 5.75717 10.8913C6.08673 10.4856 6.57531 9.794 6.87852 9.39224C7.18173 8.99049 7.27334 8.89055 7.42879 8.75579C7.79051 8.44223 8.13212 8.22458 8.41274 8.09878C8.58165 8.02305 8.81828 7.95632 9.05499 7.90105C9.29171 7.84579 9.52489 7.81248 9.80324 7.79532C10.3972 7.7587 10.7491 7.78648 10.7994 7.80743C10.9201 7.85761 11.0264 7.97954 11.1317 8.05966C11.1936 8.10686 11.2538 8.14811 11.275 8.17335C11.3479 8.26014 10.9108 8.09815 10.5326 8.09764C10.1204 8.09709 9.68286 8.24022 9.31783 8.37435C8.62734 8.62806 8.38624 8.99705 8.31407 9.10279C8.27833 9.15515 8.49425 9.07402 8.88251 8.91932C9.19922 8.79313 9.77876 8.62305 10.4995 8.3288C11.2202 8.03455 12.0697 7.63481 12.5364 7.40807C13.2195 7.07624 13.4491 6.96253 13.5793 6.92442C13.8179 6.8546 13.9119 6.96203 13.9499 6.99559C13.9793 7.02157 13.7872 7.0713 13.5065 7.14246C13.1293 7.23806 12.7697 7.39053 12.501 7.51646C12.3807 7.57282 12.2988 7.62573 11.8062 7.88881C11.3136 8.1519 10.4142 8.62659 9.85926 8.92942C9.30433 9.23225 9.12111 9.34884 8.99342 9.43805C8.79343 9.57776 8.58056 9.75387 8.29514 9.9762C8.02557 10.1862 7.85629 10.3769 7.70121 10.5026C7.32306 10.8091 7.13303 10.9907 6.98969 11.1508C6.93011 11.2174 6.85493 11.2688 6.79613 11.3318C6.76944 11.3603 6.75398 11.3864 6.78704 11.4034C6.8201 11.4205 6.90338 11.4288 7.35851 11.3373C7.81364 11.2458 8.6381 11.0543 9.63328 10.7099C10.6285 10.3656 11.7694 9.87425 12.6736 9.42959C13.5778 8.98494 14.2107 8.60186 14.5659 8.37953C15.0893 8.0519 15.2156 7.95531 15.3083 7.90017C15.3234 7.89124 15.3337 7.92907 15.3338 7.96276C15.3348 8.23044 14.9816 8.59302 14.7302 8.80702C14.5946 8.92239 14.4121 9.0127 13.3976 9.42227C12.3831 9.83185 10.5343 10.548 9.34874 11.0586C8.16316 11.5691 7.6968 11.8522 7.43573 12.0148C7.12967 12.2053 7.06514 12.2782 7.03978 12.3329C7.0308 12.3522 7.06439 12.3625 7.08975 12.3543C7.11511 12.3461 7.14009 12.3211 7.26539 12.2333C7.39069 12.1455 7.61554 11.9956 8.85563 11.3021C10.0957 10.6086 12.3442 9.37609 13.54 8.71201C14.7359 8.04793 14.8108 7.98963 14.8869 7.93878C15.1648 7.75302 15.3498 7.61866 15.4681 7.54712C15.5884 7.47429 15.7867 7.42485 16.0053 7.41236C16.0833 7.40791 16.0908 7.37488 16.0909 7.34536C16.0916 7.18994 15.8899 7.01351 15.7507 6.89944C15.6993 6.85731 15.4955 6.80279 15.1639 6.7397C14.8782 6.68535 14.6617 6.7349 14.4815 6.78512C14.2381 6.85296 13.9058 7.03672 13.5697 7.23836C13.2178 7.44943 12.9711 7.59242 12.7815 7.69374C12.7214 7.72584 12.6675 7.75267 12.6422 7.79468C12.6333 7.80927 12.6668 7.82005 12.7088 7.82017C12.8094 7.82047 13.2272 7.6868 13.8614 7.46851C14.1396 7.37275 14.3207 7.28353 14.5275 7.17817C14.9635 6.95608 15.2491 6.76922 15.3666 6.67686C15.7029 6.41245 16.2417 6.33971 16.3306 6.28532C16.4023 6.2415 16.167 6.21353 16.0166 6.19687C15.6976 6.16155 15.2855 6.11258 14.9159 6.12091C14.6452 6.12701 14.3848 6.21302 14.1244 6.30539C13.9428 6.36978 13.8036 6.4404 13.4652 6.62399C13.1949 6.77063 12.7521 7.07407 12.4704 7.26587C12.0816 7.53063 11.9359 7.68503 11.7728 7.85247C11.4985 8.13397 11.2629 8.34117 11.179 8.44615C11.1066 8.53671 10.9689 8.66873 10.6345 9.05345C10.3895 9.33533 9.96702 9.77129 9.6276 10.1069C9.28817 10.4426 9.03834 10.6591 8.82219 10.8289C8.24027 11.2862 7.99155 11.3273 7.82247 11.3909C7.67907 11.4449 7.49491 11.4959 6.86969 11.8062C6.66236 11.9091 6.48573 12.0339 6.11741 12.2598C5.86945 12.4119 5.51591 12.6689 5.31062 12.8101C5.00125 13.0228 4.92034 13.1277 4.84855 13.2497C4.78629 13.3555 4.75177 13.4976 4.72224 13.6198C4.71329 13.6568 4.71795 13.7076 4.73461 13.75C4.87719 13.8683 5.12879 13.9186 5.63729 13.9191C5.72739 13.9024 5.72739 13.8691 5.72739 13.8348" stroke="#2B2B2B" stroke-width="2" stroke-linecap="round"/>
<path d="M4.79364 11.0841C4.79364 11.1593 4.82695 11.3107 5.06114 11.729C5.2006 11.9781 5.47804 12.3797 5.62781 12.6149C5.77759 12.8501 5.80257 12.9001 5.94036 13.1091C6.07815 13.318 6.32798 13.6844 6.47751 13.9148C6.74754 14.3309 6.78677 14.4652 6.87939 14.6081C7.02333 14.8301 7.12342 14.9361 7.21175 15.0499C7.30416 15.169 7.40101 15.2728 7.51445 15.3738C7.62803 15.475 7.76239 15.5923 7.87621 15.7229C7.98219 15.8445 8.09904 15.9123 8.25866 16.055C8.50058 16.2713 8.77183 16.417 9.0951 16.631C9.25491 16.7368 9.36084 16.8038 9.64474 17.0085C9.87604 17.1752 10.2951 17.4547 10.5554 17.6255C11.0714 17.9642 11.3121 18.1244 11.4722 18.2046C11.6087 18.2728 11.7244 18.402 11.8718 18.5031C11.9727 18.5723 12.0611 18.6211 12.1914 18.6548C12.3602 18.6984 12.532 18.6968 13.1149 18.697C13.2988 18.6971 13.4569 18.6049 13.8041 18.4584C14.4035 18.2056 14.812 18.0495 14.8666 17.9991C14.9927 17.8826 15.2231 17.7308 15.3839 17.6121C15.5045 17.5232 15.6108 17.3769 15.7204 17.2505C15.8374 17.1156 16.0398 16.9813 16.3672 16.7673C16.5836 16.6258 16.7802 16.5437 16.8854 16.4849C17.0072 16.4168 17.1416 16.317 17.2723 16.2074C17.4201 16.0834 17.7705 15.8391 17.9958 15.6354C18.1009 15.5405 18.1934 15.4504 18.3364 15.2656C18.4355 15.1373 18.5215 15.0214 18.6099 14.8828C18.7313 14.6925 18.7991 14.5924 18.8709 14.4704C18.9311 14.3681 19.0095 14.2477 19.056 14.138C19.1037 14.0254 19.1943 13.8611 19.2662 13.6843C19.4114 13.3275 19.4219 13.1626 19.4807 12.986C19.5684 12.7226 19.5819 12.5317 19.6363 12.351C19.7225 12.0645 19.7747 11.7256 19.8383 11.4634C19.8676 11.3627 19.8847 11.2613 19.8972 11.1439C19.9097 11.0766 19.9347 10.9933 19.9604 10.9075" stroke="#2B2B2B" stroke-width="2" stroke-linecap="round"/>
<path d="M20.1371 10.4028C20.1371 10.3861 20.1287 10.3442 20.0537 9.98561C19.9856 9.66058 19.862 9.04405 19.7727 8.66413C19.6528 8.15432 19.5152 7.92232 19.3852 7.72081C19.1942 7.425 19.0524 7.30782 18.897 7.18568C18.7944 7.10511 18.6908 7.00474 18.5025 6.88752C18.182 6.68793 17.9085 6.54217 17.6411 6.37069C17.0958 6.02095 16.6717 5.85196 16.6004 5.83102C16.4464 5.78579 16.3522 5.71746 16.0885 5.68793C15.3722 5.60773 15.2087 5.70888 15.0572 5.71304C15.0137 5.71423 15.0389 5.72553 15.4557 5.73815C15.8724 5.75077 16.6802 5.76742 17.213 5.79682C17.7457 5.82622 17.9789 5.86786 18.149 5.90597C18.6066 6.0085 18.799 6.14596 18.9001 6.1924C19.0188 6.24694 19.1604 6.38116 19.2577 6.48665C19.3428 6.57895 19.4385 6.66734 19.5227 6.7684C19.5976 6.85831 19.6656 6.97017 19.7287 7.12133C19.8513 7.41495 19.9014 7.57583 19.9309 7.79374C19.9978 8.28735 19.8009 8.42527 19.6875 8.56003C19.5513 8.72186 19.3638 8.92141 19.2081 9.08986C19.0642 9.24559 18.9515 9.40089 18.5963 9.82334C18.3414 10.1265 17.8421 10.6692 17.5349 11.0024C17.2276 11.3355 17.1193 11.4354 16.9137 11.5868C16.708 11.7382 16.4082 11.9381 16.183 12.0744C15.9577 12.2107 15.8162 12.2773 15.5517 12.3741C15.2872 12.4708 14.9041 12.5958 14.5194 12.7059C14.1347 12.8161 13.7599 12.9077 13.5128 12.9798C12.984 13.1342 12.7111 13.2872 12.4535 13.4851C12.3133 13.5927 12.1882 13.6829 11.9658 13.876C11.714 14.0945 11.6583 14.2881 11.6033 14.4191C11.5036 14.6564 11.3555 15.0452 11.3046 15.2139C11.2869 15.2725 11.2793 15.4401 11.2917 15.6629C11.2963 15.745 11.3292 15.7608 11.3629 15.7778C11.4366 15.8147 11.8309 15.8285 12.4108 15.8368C12.9371 15.8444 13.2048 15.8956 13.3313 15.9251C13.4713 15.9578 13.5919 15.9713 14.0483 15.9174C14.2775 15.8904 14.6119 15.7301 14.8253 15.6449C15.1178 15.5281 15.3907 15.4002 15.756 15.2534C16.2659 15.0483 16.4519 14.8531 16.6903 14.6776C16.8605 14.5523 17.1037 14.3189 17.3448 14.0698C17.586 13.8207 17.8108 13.5542 17.9766 13.342C18.2531 12.988 18.3953 12.7255 18.4835 12.5324C18.6106 12.2541 18.6562 12.1112 18.6943 11.8888C18.7847 11.3613 18.5734 11.0528 18.476 10.7362C18.4022 10.4964 18.2787 10.2274 18.1444 9.99646C18.0278 9.79585 17.7916 9.62145 17.4896 9.44505C17.2068 9.27992 16.8165 9.23383 16.4551 9.18336C16.1116 9.13538 15.9065 9.21641 15.7764 9.27092C15.7119 9.29798 15.6547 9.33376 14.9667 9.94636C14.2788 10.559 12.963 11.7498 12.206 12.4633C11.4491 13.1767 11.2909 13.3766 11.1844 13.5212C11.0204 13.7437 10.9598 13.9015 10.9345 14.0524C10.9041 14.2343 10.9509 14.3895 11.0138 14.4819C11.079 14.5778 11.2114 14.6169 11.3913 14.6714C11.6892 14.7617 11.9932 14.7602 12.2322 14.7268C12.364 14.7084 12.5128 14.6601 12.9231 14.4845C13.3335 14.309 13.9997 14.0009 14.6927 13.6131C15.3856 13.2254 16.0852 12.7674 16.6204 12.3648C17.1557 11.9623 17.5055 11.6292 17.7939 11.3077C18.0823 10.9862 18.2989 10.6864 18.4437 10.457C18.6756 10.0898 18.7655 9.79003 18.8411 9.47988C18.9353 9.09337 18.9257 8.76343 18.9049 8.5329C18.8783 8.2386 18.7246 7.94781 18.5819 7.70844C18.4689 7.51894 18.3458 7.41684 18.1993 7.33306C17.969 7.20133 17.7154 7.12234 17.3558 7.06367C17.0974 7.0215 16.6797 6.98834 16.382 6.97105C16.0842 6.95376 15.9176 6.96209 15.6653 7.00386C15.4129 7.04562 15.0798 7.12057 14.8457 7.18417C14.4824 7.28289 14.1582 7.47413 13.8137 7.70504C13.5676 7.86998 13.3751 8.14666 13.1442 8.53643C13.0182 8.74903 12.9549 9.03446 12.9079 9.30928C12.816 9.84561 12.8522 10.2084 12.9023 10.3971C12.9686 10.6466 13.1462 10.8144 13.2511 10.9277C13.3559 11.041 13.5909 11.1674 13.8932 11.3061C14.1195 11.4099 14.3484 11.4288 14.65 11.4541C15.0834 11.4903 15.4921 11.4377 15.8525 11.3457C16.3449 11.22 16.7373 10.9839 16.985 10.8371C17.1985 10.7104 17.352 10.5466 17.4779 10.3788C17.5981 10.2186 17.6803 10.0336 17.7518 9.83646C17.8291 9.62315 17.8154 9.29439 17.8112 8.95409C17.8085 8.73835 17.6819 8.47826 17.497 8.18401C17.3347 7.92567 17.026 7.85443 16.6313 7.78264C16.4739 7.754 16.2386 7.76156 16.031 7.77393C15.8235 7.7863 15.6486 7.81961 15.3378 7.92005C15.027 8.02048 14.5857 8.18704 14.0751 8.44357C13.5646 8.70009 12.9983 9.04153 12.4443 9.42978C11.8902 9.81804 11.3656 10.2428 10.9037 10.6698C10.4419 11.0967 10.0588 11.5131 9.81569 11.7943C9.46722 12.1972 9.33659 12.4375 9.24839 12.6096C9.17536 12.7521 9.15943 12.8754 9.16776 12.9719C9.17564 13.0632 9.25155 13.1363 9.35627 13.2076C9.49401 13.3014 9.68838 13.3551 9.97304 13.4096C10.1568 13.4448 10.4243 13.4725 10.6573 13.4854C10.8904 13.4984 11.0819 13.4901 11.2888 13.4692C11.4958 13.4482 11.7123 13.4149 12.157 13.2895C12.6016 13.1641 13.2678 12.9475 13.8068 12.7319C14.3457 12.5163 14.7371 12.3081 14.9887 12.1633C15.348 11.9566 15.5265 11.7748 15.6735 11.5986C15.9138 11.3103 15.9227 10.7677 15.8305 10.4372C15.7758 10.2409 15.3952 10.059 14.8948 9.92782C14.6793 9.87129 14.3066 9.88996 13.8971 9.91886C13.4876 9.94775 13.0463 10.0227 12.5233 10.1571C12.0002 10.2915 11.409 10.483 10.6547 10.8107C9.90036 11.1384 9.00095 11.5964 8.34192 11.9823C7.68288 12.3681 7.29147 12.6679 7.01489 12.9223C6.55627 13.3441 6.4173 13.6574 6.39206 13.796C6.37166 13.908 6.40847 14.011 6.4713 14.1117C6.54204 14.225 6.68556 14.3138 6.84492 14.4062C7.0107 14.5023 7.23192 14.5412 7.63758 14.5832C7.92562 14.613 8.38469 14.6086 8.70809 14.6004C9.03149 14.5922 9.20637 14.5672 9.69204 14.4419C10.1777 14.3166 10.9688 14.0917 11.4597 13.9259C12.1315 13.699 12.3303 13.5156 12.4059 13.4275C12.4795 13.3418 12.4989 13.2297 12.5115 13.1373C12.5218 13.0622 12.4992 12.9857 12.4323 12.8851C12.3276 12.7277 12.1464 12.649 11.7997 12.5695C11.5217 12.5057 11.0284 12.4317 10.4505 12.3888C9.8726 12.3459 9.22303 12.3459 8.73017 12.3917C8.23731 12.4375 7.92086 12.5291 7.67455 12.6263C7.24898 12.7942 7.04012 12.9846 6.95192 13.1021C6.80795 13.2939 6.83773 13.4891 6.86271 13.6361C6.88438 13.7636 7.03078 13.8094 7.11886 13.8555C7.21058 13.9036 7.4333 13.9189 7.73562 13.9232C7.97221 13.9265 8.30747 13.8187 8.78153 13.6636C9.27666 13.5016 9.621 13.322 9.82667 13.2508C10.1811 13.1279 10.395 12.8769 10.5973 12.5783C10.6567 12.4905 10.6484 12.4136 10.6442 12.3506C10.6422 12.3207 10.6317 12.296 10.6108 12.2748C10.5643 12.2277 10.4389 12.2031 10.2336 12.1778C9.95532 12.1436 9.57381 12.2359 9.07918 12.4409C8.79222 12.5599 8.46797 12.7875 8.17561 13.0156C7.88325 13.2436 7.64175 13.4851 7.45071 13.7053C7.10725 14.1011 6.96416 14.3893 6.92631 14.5278C6.89619 14.6381 6.93009 14.7512 6.97199 14.8603C7.01121 14.9625 7.11482 15.029 7.228 15.0878C7.35619 15.1544 7.73487 15.1554 8.23063 15.1597C8.54385 15.1624 8.90455 15.0469 9.44132 14.8584C10.0625 14.6402 10.4374 14.3989 10.5591 14.3191C10.6598 14.2532 10.7238 14.1801 10.745 14.1254C10.8026 13.9769 10.3046 14.1205 10.0646 14.2213C9.79217 14.3358 9.63135 14.5823 9.49633 14.8391C9.38024 15.0599 9.41179 15.2809 9.44523 15.4284C9.46511 15.516 9.53772 15.5759 9.59639 15.6262C9.66516 15.6852 9.88951 15.7273 10.4543 15.7651C10.8435 15.7912 11.4438 15.778 11.7652 15.7822C12.0865 15.7863 12.1115 15.7947 12.1369 15.8073C12.2522 15.8646 12.4386 16.2045 12.5702 16.4504C12.6408 16.5823 12.7172 16.7112 12.8183 16.8793C12.9062 17.0256 12.9948 17.1569 13.0707 17.2917C13.1076 17.357 13.1215 17.4264 13.109 17.4852C13.0839 17.603 12.8363 17.5612 12.1697 17.5614C11.8199 17.5616 11.4413 17.4693 11.0424 17.3645C10.5269 17.2289 10.397 17.0489 10.2911 16.9476C10.2532 16.9112 10.2027 16.8886 10.1733 16.8383C10.159 16.8138 10.1522 16.7879 10.1687 16.7584C10.2106 16.6837 10.3781 16.6196 10.8003 16.5107C11.1112 16.4305 11.6305 16.3519 11.9465 16.288C12.2624 16.2242 12.3624 16.1909 12.4305 16.1695C12.4987 16.1482 12.532 16.1399 12.541 16.1313" stroke="#2B2B2B" stroke-width="2" stroke-linecap="round"/>
<path d="M15.7243 17.0528C15.685 17.0331 15.537 16.9935 15.1076 16.9488C14.3382 16.8688 13.7991 16.9435 13.6952 16.9584C13.4636 16.9916 13.1848 16.9932 12.9656 17.0179C12.9062 17.0246 12.8274 17.023 12.7869 16.9935C12.7464 16.964 12.7464 16.9051 12.7563 16.8452C12.9043 16.5674 13.1431 16.3384 13.2174 16.279C13.2524 16.2491 13.2819 16.2196 13.3718 16.1594" stroke="#2B2B2B" stroke-width="2" stroke-linecap="round"/>
</svg>
